<svg width="55" height="56" viewBox="0 0 55 56" fill="transparent" xmlns="http://www.w3.org/2000/svg">
<path d="M27.2827 28.0166C22.7587 29.0202 22.3506 33.2891 18.7782 37.8497C13.6509 44.5211 15.4815 49.1764 19.327 49.4798C23.1725 49.7833 25.6504 45.0924 29.7609 44.5536C33.7725 43.7632 37.5536 47.3143 41.0413 45.5706C44.5785 43.9527 44.9459 38.8222 38.117 34.3431C33.5382 31.4167 31.8269 27.4437 27.2827 28.0166Z" fill="#D9A6FF"/>
<path d="M14.7087 26.4114C17.6727 29.657 18.634 33.8902 16.8758 35.8571C14.9966 37.8743 11.0876 36.8751 8.12361 33.6295C5.15964 30.3839 4.19836 26.1507 5.95659 24.1838C7.8357 22.1666 11.7448 23.1658 14.7087 26.4114Z" fill="#D9A6FF"/>
<path d="M37.4064 22.6804C35.4759 26.6217 35.9434 30.7608 38.321 32.0132C40.6986 33.2656 44.2353 31.1966 46.1657 27.2554C48.0962 23.3142 47.6287 19.1751 45.2511 17.9227C42.7489 16.7221 39.2123 18.7911 37.4064 22.6804Z" fill="#D9A6FF"/>
<path d="M23.8846 16.6886C25.4579 21.0614 24.4107 25.4579 21.7223 26.4239C19.0339 27.39 15.5833 24.5599 14.01 20.1871C12.4367 15.8144 13.484 11.4178 16.1724 10.4518C18.8608 9.48575 22.3113 12.3159 23.8846 16.6886Z" fill="#D9A6FF"/>
<path d="M26.483 15.7162C26.3775 20.1283 28.5837 23.5787 31.2762 23.5859C34.0904 23.5424 36.3965 20.0467 36.5496 15.7557C36.6551 11.3436 34.449 7.89321 31.7564 7.88605C29.0162 7.75779 26.5885 11.3041 26.483 15.7162Z" />
</svg>
