<svg aria-hidden="true" style="position: absolute; width: 0; height: 0; overflow: hidden;" version="1.1" xmlns="http://www.w3.org/2000/svg" xmlns:xlink="http://www.w3.org/1999/xlink">
<defs>
<symbol id="icon-paw" viewBox="0 0 31 32">
<path d="M15.59 16.009c-2.585 0.573-2.818 3.013-4.86 5.619-2.93 3.812-1.884 6.472 0.314 6.646s3.613-2.507 5.962-2.815c2.292-0.452 4.453 1.578 6.446 0.581 2.021-0.924 2.231-3.856-1.671-6.416-2.616-1.672-3.594-3.942-6.191-3.615z"></path>
<path d="M8.405 15.092c1.694 1.855 2.243 4.274 1.238 5.398-1.074 1.153-3.308 0.582-5.001-1.273s-2.243-4.274-1.238-5.398c1.074-1.153 3.308-0.582 5.001 1.273z"></path>
<path d="M21.375 12.96c-1.103 2.252-0.836 4.617 0.523 5.333s3.38-0.467 4.483-2.719c1.103-2.252 0.836-4.617-0.523-5.333-1.43-0.686-3.451 0.496-4.483 2.719z"></path>
<path d="M13.648 9.536c0.899 2.499 0.301 5.011-1.236 5.563s-3.508-1.065-4.407-3.564c-0.899-2.499-0.301-5.011 1.236-5.563s3.508 1.065 4.407 3.564z"></path>
<path d="M15.133 8.981c-0.060 2.521 1.2 4.493 2.739 4.497 1.608-0.025 2.926-2.022 3.013-4.474 0.060-2.521-1.2-4.493-2.739-4.497-1.566-0.073-2.953 1.953-3.013 4.474z"></path>
</symbol>
</defs>

<symbol id="icon-arrow" viewBox="0 0 41 32">
<path d="M8.173 25.125c1.281-8.416 8.275-15.263 15.398-15.252 0.042 0.215 0.135 0.486 0.067 0.694-1.148 3.54 0.383 6.288 2.864 8.723 1.91 1.922 4.115 3.49 6.752 4.288 0.755 0.205 1.509 0.411 2.328 0.461 2.999 0.236 4.577-1.366 4.427-4.295-0.099-1.97-0.984-3.617-2.207-5.126-2.086-2.623-4.815-4.595-8.019-5.959-0.642-0.252-1.284-0.503-2.193-0.877 3.11-3.367 7.32-4.119 11.348-5.465-0.71-0.043-1.413-0.193-2.129-0.13-3.706 0.57-7.171 1.685-9.953 4.17-0.809 0.694-1.552 1.179-2.753 1.106-4.643-0.231-8.533 1.549-11.794 4.695-2.445 2.346-4.312 5.099-5.597 8.206-0.321 0.777-0.643 1.553-1.212 2.793-1.495-2.427-2.792-4.524-4.088-6.621-0.167 0.043-0.337 0.139-0.504 0.182-0.080 0.42-0.277 0.939-0.135 1.319 0.654 1.845 1.309 3.69 2.075 5.489 0.722 1.637 1.556 3.228 2.278 4.864 0.725 1.584 1.576 2.008 2.691 0.802 1.934-2.059 3.659-4.289 5.439-6.517 0.238-0.304 0.055-0.899 0.029-1.379-0.552 0.072-1.259-0.024-1.606 0.274-1.217 1.094-2.22 2.253-3.505 3.555zM25.815 9.903c5.295 1.226 9.295 3.913 11.689 8.678 0.484 1.038 0.844 2.335-0.188 3.068-0.687 0.489-2.004 0.515-2.926 0.352-3.516-0.746-6.129-2.817-8.264-5.549-1.47-1.948-1.838-3.988-0.312-6.549z"></path>
</symbol>

<symbol id="icon-video" viewBox="0 0 42 32">
<path fill="#839aa9" style="fill: var(--color1, #839aa9)" d="M0.098 13.567c0 0-1.927-7.847 11.323-12.616s38.908 9.434 27.705 19.715c-11.203 10.281-17.346 14.203-27.705 9.116s-11.323-16.214-11.323-16.214z"></path>
<path fill="#fff" style="fill: var(--color2, #fff)" d="M23.73 12.203c-0.007 0.077-0.054 0.161-0.162 0.246-1.055 0.837-2.11 1.674-3.165 2.511-0.225 0.179-0.76 0.22-0.76-0.2 0-1.549 0-3.098 0-4.646 0-0.38 0.574-0.474 0.803-0.319 1.055 0.712 2.11 1.424 3.165 2.135 0.121 0.082 0.147 0.179 0.118 0.273zM27.317 13.523c-0.334 8.016-13.842 6.355-12.377-2.083 0.615-3.541 3.555-5.403 6.785-5.178 3.636 0.253 5.525 3.56 5.591 7.208 0 0.009-0.006 0.017-0.007 0.026 0.001 0.010 0.008 0.016 0.007 0.027zM26.639 13.627c-0.055-2.582-0.97-5.371-3.333-6.481-3.131-1.471-6.821 0.264-7.617 3.839-0.712 3.198 0.871 6.033 3.767 7.058 3.087 1.093 7.014-0.627 7.183-4.417z"></path>
<path fill="#fff" style="fill: var(--color2, #fff)" d="M12.545 24.396v0.319h-1.48v-0.319h1.48zM11.142 21.756v2.959h-0.392v-2.959h0.392zM13.85 24.756c-0.153 0-0.292-0.026-0.417-0.077-0.123-0.053-0.23-0.127-0.319-0.222-0.088-0.095-0.156-0.207-0.203-0.337s-0.071-0.272-0.071-0.427v-0.085c0-0.179 0.026-0.338 0.079-0.478 0.053-0.141 0.125-0.26 0.215-0.358s0.194-0.171 0.309-0.222c0.115-0.050 0.234-0.075 0.358-0.075 0.157 0 0.293 0.027 0.406 0.081 0.115 0.054 0.209 0.13 0.283 0.228 0.073 0.096 0.127 0.21 0.163 0.341 0.035 0.13 0.053 0.272 0.053 0.427v0.169h-1.642v-0.307h1.266v-0.028c-0.005-0.098-0.026-0.192-0.061-0.285-0.034-0.092-0.088-0.168-0.163-0.228s-0.176-0.089-0.305-0.089c-0.085 0-0.164 0.018-0.236 0.055-0.072 0.035-0.133 0.088-0.185 0.159s-0.091 0.157-0.12 0.258c-0.028 0.102-0.043 0.219-0.043 0.352v0.085c0 0.104 0.014 0.203 0.043 0.295 0.030 0.091 0.072 0.171 0.128 0.24 0.057 0.069 0.125 0.123 0.205 0.163 0.081 0.039 0.173 0.059 0.276 0.059 0.133 0 0.245-0.027 0.337-0.081s0.173-0.127 0.242-0.218l0.228 0.181c-0.047 0.072-0.108 0.14-0.181 0.205s-0.163 0.118-0.27 0.159c-0.106 0.041-0.231 0.061-0.376 0.061zM16.441 24.339v-1.132c0-0.087-0.018-0.162-0.053-0.226-0.034-0.065-0.085-0.115-0.154-0.15s-0.154-0.053-0.256-0.053c-0.095 0-0.178 0.016-0.25 0.049-0.070 0.033-0.126 0.075-0.167 0.128-0.039 0.053-0.059 0.11-0.059 0.171h-0.376c0-0.079 0.020-0.157 0.061-0.234s0.099-0.147 0.175-0.209c0.077-0.064 0.169-0.114 0.276-0.15 0.108-0.038 0.229-0.057 0.362-0.057 0.16 0 0.301 0.027 0.423 0.081 0.123 0.054 0.22 0.136 0.289 0.246 0.070 0.108 0.106 0.245 0.106 0.409v1.024c0 0.073 0.006 0.151 0.018 0.234 0.014 0.083 0.033 0.154 0.059 0.213v0.033h-0.392c-0.019-0.043-0.034-0.101-0.045-0.173-0.011-0.073-0.016-0.141-0.016-0.203zM16.506 23.382l0.004 0.264h-0.38c-0.107 0-0.203 0.009-0.287 0.026-0.084 0.016-0.154 0.041-0.211 0.075s-0.1 0.077-0.13 0.128c-0.030 0.050-0.045 0.109-0.045 0.177 0 0.069 0.016 0.132 0.047 0.189s0.078 0.102 0.14 0.136c0.064 0.033 0.142 0.049 0.234 0.049 0.115 0 0.217-0.024 0.305-0.073s0.158-0.108 0.209-0.179c0.053-0.070 0.081-0.139 0.085-0.205l0.161 0.181c-0.009 0.057-0.035 0.12-0.077 0.189s-0.098 0.136-0.169 0.199c-0.069 0.062-0.152 0.114-0.248 0.157-0.095 0.041-0.202 0.061-0.321 0.061-0.149 0-0.28-0.029-0.392-0.087-0.111-0.058-0.198-0.136-0.26-0.234-0.061-0.099-0.091-0.209-0.091-0.331 0-0.118 0.023-0.222 0.069-0.311 0.046-0.091 0.112-0.166 0.199-0.226 0.087-0.061 0.191-0.107 0.313-0.138s0.258-0.047 0.409-0.047h0.437zM17.785 22.862v1.854h-0.376v-2.199h0.366l0.010 0.346zM18.472 22.504l-0.002 0.35c-0.031-0.007-0.061-0.011-0.089-0.012-0.027-0.003-0.058-0.004-0.093-0.004-0.087 0-0.163 0.014-0.23 0.041s-0.123 0.065-0.169 0.114c-0.046 0.049-0.083 0.107-0.11 0.175-0.026 0.066-0.043 0.14-0.051 0.22l-0.106 0.061c0-0.133 0.013-0.257 0.039-0.374 0.027-0.117 0.068-0.22 0.124-0.309 0.056-0.091 0.126-0.161 0.211-0.211 0.087-0.052 0.19-0.077 0.309-0.077 0.027 0 0.058 0.003 0.093 0.010 0.035 0.005 0.060 0.012 0.073 0.018zM19.195 22.986v1.73h-0.376v-2.199h0.356l0.020 0.47zM19.106 23.532l-0.157-0.006c0.001-0.15 0.024-0.289 0.067-0.417 0.043-0.129 0.104-0.241 0.183-0.335s0.172-0.168 0.28-0.22c0.11-0.053 0.231-0.079 0.364-0.079 0.108 0 0.206 0.015 0.293 0.045 0.087 0.028 0.161 0.075 0.222 0.138 0.062 0.064 0.11 0.146 0.142 0.248 0.033 0.1 0.049 0.223 0.049 0.368v1.441h-0.378v-1.445c0-0.115-0.017-0.207-0.051-0.276-0.034-0.070-0.083-0.121-0.148-0.152-0.065-0.033-0.145-0.049-0.24-0.049-0.093 0-0.179 0.020-0.256 0.059-0.076 0.039-0.142 0.093-0.197 0.163-0.054 0.069-0.097 0.148-0.128 0.238-0.030 0.088-0.045 0.182-0.045 0.28zM22.526 22.953v1.762h-0.378v-2.199h0.358l0.020 0.437zM22.449 23.532l-0.175-0.006c0.001-0.15 0.021-0.289 0.059-0.417 0.038-0.129 0.094-0.241 0.169-0.335s0.167-0.168 0.278-0.22c0.111-0.053 0.24-0.079 0.386-0.079 0.103 0 0.198 0.015 0.285 0.045 0.087 0.028 0.162 0.074 0.226 0.136s0.113 0.142 0.148 0.24c0.035 0.098 0.053 0.215 0.053 0.354v1.465h-0.376v-1.447c0-0.115-0.020-0.207-0.059-0.276-0.038-0.069-0.092-0.119-0.163-0.15-0.070-0.033-0.153-0.049-0.248-0.049-0.111 0-0.204 0.020-0.278 0.059s-0.134 0.093-0.179 0.163c-0.045 0.069-0.077 0.148-0.098 0.238-0.019 0.088-0.028 0.182-0.028 0.28zM23.874 23.325l-0.252 0.077c0.001-0.121 0.021-0.236 0.059-0.348 0.039-0.111 0.096-0.21 0.169-0.297 0.075-0.087 0.166-0.155 0.274-0.205 0.108-0.052 0.232-0.077 0.372-0.077 0.118 0 0.222 0.016 0.313 0.047 0.092 0.031 0.169 0.079 0.232 0.144 0.064 0.064 0.112 0.146 0.144 0.246s0.049 0.22 0.049 0.358v1.445h-0.378v-1.449c0-0.123-0.020-0.219-0.059-0.287-0.038-0.069-0.092-0.117-0.163-0.144-0.069-0.028-0.152-0.043-0.248-0.043-0.083 0-0.156 0.014-0.22 0.043s-0.117 0.068-0.161 0.118c-0.043 0.049-0.077 0.105-0.1 0.169-0.022 0.064-0.033 0.131-0.033 0.203zM25.703 23.64v-0.047c0-0.159 0.023-0.306 0.069-0.441 0.046-0.137 0.112-0.255 0.199-0.356 0.087-0.102 0.192-0.18 0.315-0.236 0.123-0.057 0.261-0.085 0.415-0.085 0.155 0 0.293 0.028 0.417 0.085 0.125 0.056 0.23 0.134 0.317 0.236 0.088 0.1 0.155 0.219 0.201 0.356 0.046 0.136 0.069 0.282 0.069 0.441v0.047c0 0.159-0.023 0.306-0.069 0.441s-0.113 0.254-0.201 0.356c-0.087 0.1-0.192 0.179-0.315 0.236-0.122 0.056-0.26 0.083-0.415 0.083s-0.293-0.028-0.417-0.083c-0.123-0.057-0.229-0.136-0.317-0.236-0.087-0.102-0.153-0.22-0.199-0.356s-0.069-0.282-0.069-0.441zM26.079 23.593v0.047c0 0.11 0.013 0.213 0.039 0.311 0.026 0.096 0.064 0.182 0.116 0.256 0.053 0.075 0.119 0.133 0.197 0.177 0.079 0.042 0.17 0.063 0.274 0.063 0.103 0 0.193-0.021 0.271-0.063 0.079-0.043 0.144-0.102 0.195-0.177s0.090-0.16 0.116-0.256c0.027-0.098 0.041-0.201 0.041-0.311v-0.047c0-0.108-0.014-0.211-0.041-0.307-0.026-0.098-0.065-0.184-0.118-0.258-0.052-0.076-0.117-0.136-0.195-0.179-0.077-0.043-0.168-0.065-0.272-0.065-0.103 0-0.194 0.022-0.272 0.065-0.077 0.043-0.142 0.103-0.195 0.179-0.052 0.075-0.090 0.161-0.116 0.258-0.026 0.096-0.039 0.198-0.039 0.307zM28.553 22.862v1.854h-0.376v-2.199h0.366l0.010 0.346zM29.24 22.504l-0.002 0.35c-0.031-0.007-0.061-0.011-0.090-0.012-0.027-0.003-0.058-0.004-0.093-0.004-0.087 0-0.163 0.014-0.23 0.041s-0.123 0.065-0.169 0.114c-0.046 0.049-0.082 0.107-0.11 0.175-0.026 0.066-0.043 0.14-0.051 0.22l-0.106 0.061c0-0.133 0.013-0.257 0.038-0.374 0.027-0.117 0.068-0.22 0.124-0.309 0.056-0.091 0.126-0.161 0.211-0.211 0.087-0.052 0.19-0.077 0.309-0.077 0.027 0 0.058 0.003 0.093 0.010 0.035 0.005 0.060 0.012 0.073 0.018zM30.459 24.756c-0.153 0-0.292-0.026-0.417-0.077-0.123-0.053-0.23-0.127-0.319-0.222-0.088-0.095-0.156-0.207-0.203-0.337s-0.071-0.272-0.071-0.427v-0.085c0-0.179 0.027-0.338 0.079-0.478 0.053-0.141 0.125-0.26 0.215-0.358s0.194-0.171 0.309-0.222c0.115-0.050 0.234-0.075 0.358-0.075 0.157 0 0.293 0.027 0.406 0.081 0.115 0.054 0.209 0.13 0.283 0.228 0.073 0.096 0.127 0.21 0.163 0.341 0.035 0.13 0.053 0.272 0.053 0.427v0.169h-1.642v-0.307h1.266v-0.028c-0.005-0.098-0.026-0.192-0.061-0.285-0.034-0.092-0.088-0.168-0.163-0.228s-0.176-0.089-0.305-0.089c-0.086 0-0.164 0.018-0.236 0.055-0.072 0.035-0.133 0.088-0.185 0.159s-0.091 0.157-0.12 0.258c-0.028 0.102-0.043 0.219-0.043 0.352v0.085c0 0.104 0.014 0.203 0.043 0.295 0.030 0.091 0.073 0.171 0.128 0.24 0.057 0.069 0.125 0.123 0.205 0.163 0.081 0.039 0.173 0.059 0.276 0.059 0.133 0 0.245-0.027 0.337-0.081s0.173-0.127 0.242-0.218l0.228 0.181c-0.047 0.072-0.108 0.14-0.181 0.205s-0.163 0.118-0.27 0.159c-0.106 0.041-0.231 0.061-0.376 0.061z"></path>
</symbol>

<symbol id="icon-food-icon" viewBox="0 0 48 32">
<path d="M45.37 13.333c-0.052-1.992-2.005-3.973-5.918-5.333 0.267-0.547 0-0.726 0-1.333 0-2.356-2.048-4.667-4.603-4.667-0.576 0-0.778 0.473-1.315 0.667-0.86-0.97-2.435-1.333-3.945-1.333-0.684 0-1.354-0.232-1.973 0-1.076-0.891-2.414-1.333-3.945-1.333-2.063 0-4.235 1.21-5.26 2.667-2.426-0.265-4.432 0.263-5.26 2-2.034 0.036-3.69 1.536-3.945 3.333-4.239 1.378-6.52 3.252-6.575 5.333l-2.63 10v0.667c0 4.649 10.871 8 24.329 8s23.671-3.352 23.671-8l-2.63-10.667zM13.151 6c-0.034-0.002 0.034 0 0 0h0.658v-0.667c0.521-1.382 2.061-2 3.945-2 0.265 0 0.383-0.041 0.658 0h0.658c0.832-1.345 2.721-2.667 4.603-2.667 1.422 0 2.353 0.473 3.288 1.333l0.658 0.667v-0.667c0.578-0.252 1.308 0 1.973 0 1.378 0 2.617 0.424 3.288 1.333h0.658c0.52-0.227 0.747 0 1.315 0 2.090 0 3.945 1.449 3.945 3.333 0 0.618-0.308 0.805-0.658 1.333-0.001 0.001 0.001 0.665 0 0.667-0.027 0.040 0.028-0.039 0 0v0.667h0.658c1.651 0.228 2.63 1.13 2.63 2 0 0.523-0.316 0.431-0.658 0.667-0.055 0.038 0.048-0.029 0 0l-1.315 0.667 1.315 0.667c0.742 0.345 0.658 0.742 0.658 1.333 0 0.881-1.677 2-3.288 2-0.735 0.252-1.197 0.461-1.973 0.667-3.297 0.868-7.208 1.333-11.178 1.333-6.791 0-12.484-1.499-14.466-2-0.457-0.115-0.645 0.004-0.658 0-1.804 0-3.288-1.716-3.288-3.333s1.484-2.667 3.288-2.667c-0.109-0.010 0.113 0 0 0h0.658v-0.667c-0.212-0.39-0.658-0.908-0.658-1.333-0.002 0.025 0-0.025 0 0 0.168-1.438 1.617-2.667 3.288-2.667zM9.205 9.333c-0.003-0.018 0.002 0.018 0 0-0.004-0.028 0.004 0.028 0 0 0.025 0.147-0.044-0.143 0 0 0.001 0.002-0.001-0.002 0 0-2.144 0.129-3.945 1.996-3.945 4 0 2.069 2.361 3.971 4.603 4 0.103 0.029 0.304-0.089 0.658 0 2.025 0.512 7.59 2 14.466 2-0.001 0 0.001 0 0 0 4.966 0 9.224-0.664 13.151-2 1.944-0.027 4.603-1.159 4.603-2.667 0-0.185 0.048-0.49 0-0.667-0.143-0.529-0.799-0.962-1.315-1.333 0.512-0.46 0.658-0.755 0.658-1.333 0-0.041 0.003-0.625 0-0.667-0.002-0.035 0.004 0.033 0 0-0.005-0.040 0.008 0.039 0 0-0.008-0.038 0.010 0.038 0 0-0.002-0.009 0.002 0.009 0 0 1.58 0.945 2.63 1.619 2.63 2.667 0 3.18-8.721 6.667-21.041 6.667s-20.384-3.487-20.384-6.667c0-1.647 2.224-2.757 5.918-4zM23.671 31.333c-12.498 0-22.924-3.323-23.014-7.333l2.63-8.667c2.022 3.392 9.916 6 20.384 6s19.020-2.607 21.041-6l2.63 8.667c-0.090 4.010-11.173 7.333-23.671 7.333z"></path>
<path d="M30.904 24c0-1.13-0.88-2-1.973-2-1.057 0-1.921 0.919-1.973 2h-6.575c-0.052-1.081-0.915-2-1.973-2-1.091 0-1.973 0.87-1.973 2 0 0.659 0.189 0.959 0.658 1.333-0.468 0.375-0.658 1.342-0.658 2 0 1.13 0.881 2 1.973 2 1.058 0 1.921-0.919 1.973-2h6.575c0.052 1.081 0.916 2 1.973 2 1.092 0 1.973-0.87 1.973-2 0-0.658-0.19-1.625-0.658-2 0.467-0.375 0.658-0.674 0.658-1.333zM30.247 27.333c0 0.658-0.679 1.333-1.315 1.333-0.635 0-1.315-0.675-1.315-1.333-0.016 0.079 0-0.079 0 0v-0.667h-7.89v0.667c0-0.079 0.016 0.079 0 0 0 0.658-0.679 1.333-1.315 1.333s-1.315-0.675-1.315-1.333c0-0.657 0.679-1.333 1.315-1.333v-0.667c-0.636 0-1.315-0.677-1.315-1.333 0-0.658 0.679-1.333 1.315-1.333s1.315 0.675 1.315 1.333c0 0.080 0.016-0.079 0 0v0.667h7.89v-0.667c-0.016-0.080 0 0.079 0 0 0-0.658 0.68-1.333 1.315-1.333 0.636 0 1.315 0.675 1.315 1.333 0 0.657-0.679 1.333-1.315 1.333v0.667c0.637-0.001 1.315 0.676 1.315 1.333z"></path>
</symbol>

<symbol id="icon-bone-ball" viewBox="0 0 73 32">
<path d="M72.673 13.749c0.834-1.892 0.379-4.677 0-6.753-0.295-1.765-1.027-3.222-2.124-4.502s-2.718-1.886-4.247-2.251c-1.214-0.314-3.038-0.336-4.247 0s-1.168 1.335-2.124 2.251c-2.383 2.173-5.455 2.326-8.494 2.251h-29.731c-3.039 0.076-6.112-0.078-8.494-2.251-0.956-0.916-0.914-1.915-2.124-2.251s-3.034-0.314-4.247 0c-1.529 0.365-3.151 0.971-4.247 2.251s-1.828 2.737-2.124 4.502c-0.38 2.076-0.834 4.861 0 6.753 0.302 0.681 2.124 1.486 2.124 2.251s-1.821 1.57-2.124 2.251c-0.832 1.892-0.378 4.677 0 6.753 0.296 1.766 1.028 3.22 2.124 4.502s2.718 1.882 4.247 2.251c1.214 0.313 3.038 0.336 4.247 0s1.168-1.335 2.124-2.251c2.382-2.176 5.454-2.322 8.494-2.251h29.731c3.040-0.071 6.113 0.075 8.494 2.251 0.956 0.916 0.914 1.915 2.124 2.251s3.034 0.313 4.247 0c1.529-0.369 3.151-0.969 4.247-2.251s1.828-2.736 2.124-4.502c0.378-2.076 0.832-4.861 0-6.753-0.302-0.681-2.124-1.486-2.124-2.251s1.822-1.57 2.124-2.251z"></path>
</symbol>

<symbol id="icon-arrow-slider" viewBox="0 0 32 32">
<path d="M12.586 27.414l-10-10c-0.781-0.781-0.781-2.047 0-2.828l10-10c0.781-0.781 2.047-0.781 2.828 0s0.781 2.047 0 2.828l-6.586 6.586h19.172c1.105 0 2 0.895 2 2s-0.895 2-2 2h-19.172l6.586 6.586c0.39 0.39 0.586 0.902 0.586 1.414s-0.195 1.024-0.586 1.414c-0.781 0.781-2.047 0.781-2.828 0z"></path>
</symbol>

<symbol id="icon-burger-menu" viewBox="0 0 32 32">
<path d="M29.333 24.007c0 0.733-0.595 1.327-1.327 1.327h-10.68c-0.352 0-0.689-0.14-0.938-0.389s-0.389-0.586-0.389-0.938c0-0.352 0.14-0.689 0.389-0.938s0.586-0.389 0.938-0.389h10.68c0.733 0 1.327 0.593 1.327 1.327zM29.333 16c0 0.733-0.595 1.327-1.327 1.327h-24.013c-0.352 0-0.689-0.14-0.938-0.389s-0.389-0.586-0.389-0.938c0-0.352 0.14-0.689 0.389-0.938s0.586-0.389 0.938-0.389h24.013c0.733 0 1.327 0.595 1.327 1.327zM28.007 9.32c0.352 0 0.689-0.14 0.938-0.389s0.389-0.586 0.389-0.938c0-0.352-0.14-0.689-0.389-0.938s-0.586-0.389-0.938-0.389h-16.013c-0.174 0-0.347 0.034-0.508 0.101s-0.307 0.164-0.43 0.288c-0.123 0.123-0.221 0.269-0.288 0.43s-0.101 0.333-0.101 0.508c0 0.174 0.034 0.347 0.101 0.508s0.164 0.307 0.288 0.43c0.123 0.123 0.269 0.221 0.43 0.288s0.333 0.101 0.508 0.101h16.013z"></path>
</symbol>

<symbol id="icon-close-menu" viewBox="0 0 32 32">
<path stroke-linejoin="miter" stroke-linecap="round" stroke-miterlimit="4" stroke-width="2.6667" d="M12 8l8 8 8-8"></path>
<path stroke-linejoin="miter" stroke-linecap="round" stroke-miterlimit="4" stroke-width="2.6667" d="M12 24l8-8 8 8"></path>
</symbol>

</svg>
